<svg xmlns="http://www.w3.org/2000/svg" width="33" height="22" viewBox="0 0 33 22"><defs><style>.a{fill:#fff;}.b{fill:#296db6;}</style></defs><g transform="translate(0 0)"><rect class="a" width="33" height="22" rx="4" transform="translate(0 0)"/><g transform="translate(0 0)"><path class="b" d="M6.1,12.306v5.61h5.679l.591-.839.577.839h3.472V16.651h.385a3.389,3.389,0,0,0,1.031-.151v1.416H20.2v-1l.8,1H31.735a2.3,2.3,0,0,0,1.251-.344v2.365A2.75,2.75,0,0,1,30.312,22H2.75A2.75,2.75,0,0,1,0,19.25V10.588H1.567l.323-.839h.77l.316.839H15.586v-1l.8,1H19.69v-.509a2.75,2.75,0,0,0,1.664.509h1.973l.316-.839h.77l.337.839h3.369V9.5l.687,1.086H31.13V4.978H28.662V6.119l-.736-1.141H25.767V6.421L25.08,4.978H21.409a2.667,2.667,0,0,0-1.719.564V4.978H7.562L7.15,6.188,6.737,4.95H3.987V6.394L3.341,4.95H1.1L0,7.563V2.75A2.75,2.75,0,0,1,2.75,0H30.312A2.75,2.75,0,0,1,33,2.063V12.306H12.966l-.591.825-.577-.825Z" transform="translate(0 0)"/><path class="b" d="M21.287,3.913c-.033,0-.066,0-.1,0H19.181V3.084h2.007a.351.351,0,1,0,0-.687h-.907a1.079,1.079,0,0,1-1.21-1.142A1.2,1.2,0,0,1,20.405.046h2.014l-.371.825H20.377a.351.351,0,1,0,0,.687h.9V1.531a1.065,1.065,0,0,1,1.21,1.114,1.2,1.2,0,0,1-1.2,1.269Zm3.57-.012c-.04,0-.081,0-.121-.006H22.763V3.071H24.75a.351.351,0,1,0,0-.687h-.887a1.08,1.08,0,0,1-1.21-1.142A1.195,1.195,0,0,1,23.987.032H26L25.63.871H23.959l-.02-.027a.351.351,0,1,0,0,.687h.935A1.113,1.113,0,0,1,26,2.177V3.1A1.22,1.22,0,0,1,24.857,3.9ZM7.494,3.9H6.311L5.376,2.645,4.441,3.882H3.314L4.826,1.957,3.252,0H4.42l.956,1.224.962-1.2H7.48L5.926,1.957,7.493,3.895Zm5.087-.013h-.935V.046h2.1A1.252,1.252,0,0,1,13.9.037a1.232,1.232,0,0,1,.143,2.456l1.3,1.388H14.163L13.007,2.507h-.426V3.882Zm0-3.054v.894h1.087V1.682a.419.419,0,0,0,.481-.426.428.428,0,0,0-.481-.426Zm6.105,3.053H15.558V.046h3.128V.871L16.507.843v.687h2.124v.838H16.507v.687h2.179v.825ZM8.6,3.882H7.659V.032H9.8V0c.039,0,.072,0,.1,0a1.244,1.244,0,0,1,1.244,1.3,1.279,1.279,0,0,1-1.278,1.31c-.032,0-.065,0-.1,0H8.6V3.881ZM8.6.829v.976H9.714V1.778a.475.475,0,1,0,0-.949ZM3.114,3.882H0V0H3.114V.829L.935.843v.687H3.073v.838H.935v.687H3.114v.825Z" transform="translate(6.999 13.168)"/><path class="b" d="M27.431,3.915H26.51V.038h1.148L29.033,2.1l.261.441V.01h.956V3.888H29.116L27.678,1.7l-.247-.426v2.64Zm-1.1,0H25.272l-.33-.811H23.106l-.33.783h-1L23.437.01h1.237l1.657,3.9ZM24.014.808h0l-.247.6-.358.908h1.21l-.371-.908-.234-.6ZM4.572,3.915H3.513L3.183,3.1H1.375l-.358.783H0L1.684.01H2.908l1.663,3.9ZM2.262.808h0l-.247.6-.379.908H2.881L2.51,1.413l-.247-.6Zm18.9,3.082h0a1.719,1.719,0,0,1-1.707-1.914V1.922A1.753,1.753,0,0,1,21.2.007c.037,0,.075,0,.112,0H22.4V.849H21.335a.963.963,0,0,0-.958,1.074v.054a.963.963,0,0,0,.954,1.088h.359l-.379.825h-.054Zm-6.183,0h-.955V.01h2.1A1.217,1.217,0,0,1,17.5,1.234a1.2,1.2,0,0,1-1.059,1.224L17.73,3.886H16.562L15.407,2.513H14.98V3.888Zm0-3.053v.853h1.087a.425.425,0,0,0,.061,0,.419.419,0,0,0,.419-.431.433.433,0,0,0-.433-.429l-.048,0ZM5.665,3.888H4.751V.01H6.27l.77,2.241.124.426.124-.426L8.044.01H9.549V3.887H8.642V.753l-.179.591-.9,2.544H6.738l-.88-2.544L5.665.753V3.888Zm13.227,0H17.95V.01h.942V3.887Zm-5.486,0H10.313V.01h3.094V.835l-2.18.014v.687h2.125v.839H11.227v.687h2.18v.824Z" transform="translate(0 5.834)"/></g></g></svg>