<svg xmlns="http://www.w3.org/2000/svg" width="33" height="22" viewBox="0 0 33 22"><defs><style>.a{fill:#fff;}.b{fill:#0779be;}.c{fill:#211e1f;}</style></defs><g transform="translate(0 0)"><rect class="a" width="33" height="22" rx="4" transform="translate(0 0)"/><path class="b" d="M30.25,22H2.75A2.753,2.753,0,0,1,0,19.25V2.75A2.753,2.753,0,0,1,2.75,0h27.5A2.753,2.753,0,0,1,33,2.75v16.5A2.753,2.753,0,0,1,30.25,22ZM2.75,1.375A1.376,1.376,0,0,0,1.375,2.75v16.5A1.376,1.376,0,0,0,2.75,20.625h27.5a1.376,1.376,0,0,0,1.375-1.375V2.75A1.376,1.376,0,0,0,30.25,1.375Z" transform="translate(0 0)"/><g transform="translate(5.913 3.436)"><path class="c" d="M1.244,3.136H0V3.019l.018,0c.258-.026.388-.039.388-.342V.51C.406.124.2.124,0,.124V.008H1.3C1.352,0,1.406,0,1.459,0A1.636,1.636,0,0,1,3.094,1.575C3.094,1.735,3.042,3.136,1.244,3.136ZM1.021.167C.963.167.9.169.846.172L.818,2.607c0,.339.236.385.468.385h.047A1.244,1.244,0,0,0,2.572,1.617,1.376,1.376,0,0,0,1.2.172C1.138.169,1.078.167,1.021.167Z" transform="translate(0.021 9.241)"/><path class="c" d="M.935,2.053V1.937H.859c-.131,0-.227,0-.227-.151V0A.186.186,0,0,0,.55,0,4.675,4.675,0,0,1,.069.17V.238C.234.328.3.355.3.555v1.21c0,.151-.089.151-.213.151H0v.138H.935Z" transform="translate(3.293 10.323)"/><path class="c" d="M.4.62A.22.22,0,1,0,.18.4.22.22,0,0,0,.4.62Z" transform="translate(3.347 9.047)"/><path class="c" d="M2.214,1.911H2.138c-.131,0-.227,0-.227-.151V.626C1.911.282,1.781,0,1.4,0a1.293,1.293,0,0,0-.77.337V0A5.713,5.713,0,0,1,.034.213V.3C.241.385.3.433.3.6h0V1.781c0,.151-.089.151-.22.151H0V2H.956V1.884H.873c-.124,0-.22,0-.22-.151V.44A1.121,1.121,0,0,1,1.169.22a.364.364,0,0,1,.413.385V1.76c0,.151-.089.151-.213.151H1.286V2h.928Z" transform="translate(4.386 10.376)"/><path class="c" d="M.881,2.079h0A.906.906,0,0,1,.245,1.8.9.9,0,0,1,0,1.145C0,.209.651,0,.9,0a.687.687,0,0,1,.756.687V.773H.358a1.536,1.536,0,0,0,0,.261.74.74,0,0,0,.687.77.871.871,0,0,0,.605-.3l.062.062A1.053,1.053,0,0,1,.881,2.079ZM.888.106H.9C.638.113.455.3.4.629h.743c.124,0,.124-.056.124-.11A.378.378,0,0,0,.9.106H.888Z" transform="translate(6.558 10.393)"/><path class="c" d="M.124,1.932H0v.089H1.162V1.9H.914c-.131,0-.22,0-.22-.151V.729a.378.378,0,0,1,.33-.371c.158,0,.158.11.3.11A.213.213,0,0,0,1.526.241.241.241,0,0,0,1.272,0C1,0,.811.289.7.461h0v-.4C.7.014.7,0,.66,0S.44.117.11.255V.324c.069,0,.234.062.234.2V1.781C.337,1.932.248,1.932.124,1.932Z" transform="translate(8.346 10.355)"/><path class="c" d="M.646,2.005a.6.6,0,0,1-.564-.55H0l.055.509A1.155,1.155,0,0,0,.6,2.122c.529,0,.77-.316.77-.612C1.368.823.33.967.33.445a.316.316,0,0,1,.351-.3.468.468,0,0,1,.488.44h.117L1.251.135A1.162,1.162,0,0,0,.743,0,.612.612,0,0,0,.055.582c0,.688.976.55.976,1.079a.323.323,0,0,1-.385.344Z" transform="translate(9.989 10.323)"/><path class="c" d="M2.7,3l.1-.653H2.7a.914.914,0,0,1-.9.777A1.458,1.458,0,0,1,.47,1.568,1.272,1.272,0,0,1,1.728.145a.859.859,0,0,1,.963.736H2.8L2.753.241A3.163,3.163,0,0,0,1.7,0,1.65,1.65,0,0,0,0,1.582,1.6,1.6,0,0,0,1.715,3.266,2.53,2.53,0,0,0,2.7,3Z" transform="translate(12.599 9.234)"/><path class="c" d="M.928,3.424V3.307H.853c-.131,0-.227,0-.227-.151V0a.149.149,0,0,0-.1.048A2.585,2.585,0,0,1,.069.241V.316C.234.364.3.371.3.667V3.156c0,.151-.089.151-.213.151H0v.117H.928Z" transform="translate(15.593 8.952)"/><path class="c" d="M.213.364V1.513A.481.481,0,0,0,.7,2.049a1.21,1.21,0,0,0,.8-.378v.364h0a4.7,4.7,0,0,1,.646-.144V1.815H2c-.076,0-.131,0-.131-.083V0s-.3.034-.688.062V.144c.158.041.371.1.371.179v1.21a1.011,1.011,0,0,1-.536.268c-.392,0-.392-.385-.392-.516V.131C.626.034.626,0,.578,0L0,.034V.117C.213.138.213.248.213.364Z" transform="translate(16.562 10.424)"/><path class="c" d="M1.045,3.5h0a1.321,1.321,0,0,1-.619-.158l-.137.1L.2,3.4a5.2,5.2,0,0,0,.062-.825V.646C.261.381.2.365.02.321L0,.316V.241A2.207,2.207,0,0,0,.46.048L.564,0C.6,0,.6.061.6.062V1.705a1.139,1.139,0,0,1,.687-.324.874.874,0,0,1,.832.942A1.139,1.139,0,0,1,1.045,3.5Zm0-1.9a.688.688,0,0,0-.426.213L.584,2.895a.478.478,0,0,0,.461.46c.472,0,.687-.453.687-.873A.855.855,0,0,0,1.045,1.6Z" transform="translate(18.707 8.98)"/><path class="c" d="M.371.014H.014v.1H.062C.151.11.227.11.234.241V1.513c0,.124-.083.131-.172.131H0V1.76H.743V1.671H.722c-.089,0-.172,0-.172-.131V.227C.55.1.633.1.722.1H.77V0h0Z" transform="translate(0 13.366)"/><path class="c" d="M1.671.021H1.327v.1h.062c.076,0,.2,0,.206.22v.894L.523.028H.014v.1H.055A.206.206,0,0,1,.268.33V1.361c0,.193-.048.3-.213.3H0v.11H.646V1.678H.591c-.179,0-.213-.062-.22-.275V.392L1.609,1.767h.117V.392c0-.282.11-.3.206-.3H1.98V0h0Z" transform="translate(0.839 13.359)"/><path class="c" d="M1.6,0h0c0,.062-.055.062-.124.062H.2C.138.062.1.062.076,0H0A1.815,1.815,0,0,1,0,.2V.406H.1C.138.227.138.193.316.193H.7V1.485c0,.186-.055.186-.193.193H.454v.158h.8V1.746H1.2c-.117,0-.193,0-.193-.2V.22H1.4c.158,0,.165.131.172.227h0L1.657.413h0v-.4H1.588Z" transform="translate(2.908 13.291)"/><path class="c" d="M1.313,1.272h0c-.069.275-.193.289-.481.289-.158,0-.289,0-.289-.151V.853H.825C.99.853.99.942,1,1.086h.089V.523H1C1,.653.956.722.818.729H.536V.11h.33c.248,0,.268.117.282.275h.083V0H0V.1H.041C.131.1.206.1.213.227V1.5c0,.124-.083.131-.172.131H0v.11H1.334a2.034,2.034,0,0,1,.083-.385H1.341Z" transform="translate(4.648 13.387)"/><path class="c" d="M.77,1.76H0V1.629H.055c.1,0,.165-.049.165-.124V.268C.22.1.129.1.055.1H0V0H.77c.393,0,.592.148.592.44a.459.459,0,0,1-.337.433l.412.612a.255.255,0,0,0,.245.186h.009v.088l-.268-.04H1.189A6.734,6.734,0,0,1,.681.935H.536v.55c.007.186.077.186.192.186H.77V1.76ZM.53.137V.825h.11C.858.825,1,.762,1,.454A.316.316,0,0,0,.687.136H.53Z" transform="translate(6.146 13.366)"/><path class="c" d="M1.973.1V0H1.327V.1h.062c.076,0,.2,0,.206.22V1.21L.509.007H0V.1H.041A.206.206,0,0,1,.254.309V1.334c0,.2-.048.3-.213.3H0V1.76H.646V1.671H.591c-.179,0-.213-.062-.213-.275V.385L1.609,1.76h.117V.385c0-.282.11-.3.206-.3H1.98Z" transform="translate(7.879 13.366)"/><path class="c" d="M.557,1.809H0V1.684a.216.216,0,0,0,.206-.151L.592.413A2.361,2.361,0,0,0,.687.1.991.991,0,0,0,.915,0V.062l.447,1.279c.009.021.019.042.029.064a.476.476,0,0,1,.06.183.152.152,0,0,0,.076.131.154.154,0,0,0,.076.02.152.152,0,0,0,.075-.02v.088h-.7V1.719H1.01c.07,0,.145-.016.145-.062a.751.751,0,0,0-.048-.172l-.1-.275H.475L.4,1.458a1.491,1.491,0,0,0-.054.186A.066.066,0,0,0,.4,1.709a.448.448,0,0,0,.115.01H.557v.089ZM.674.358.46,1.01H.887Z" transform="translate(9.914 13.318)"/><path class="c" d="M1.6,0h0c0,.062-.055.062-.124.062H.206C.144.062.1.062.083,0H0A.942.942,0,0,1,0,.2V.413H.1C.131.234.131.2.309.2H.7V1.492c0,.186-.062.186-.193.193H.447v.151h.811V1.746H1.2c-.117,0-.193,0-.193-.2V.22H1.4c.151,0,.158.131.165.227h0L1.657.413h0a1.863,1.863,0,0,1,0-.2v-.2H1.588Z" transform="translate(11.371 13.291)"/><path class="c" d="M.364.014H0v.1H.041C.131.11.213.11.213.241V1.513c0,.124-.083.131-.172.131H0V1.76H.743V1.671H.694c-.089,0-.165,0-.165-.131V.227C.529.1.605.1.694.1H.743V0h0Z" transform="translate(13.124 13.366)"/><path class="c" d="M.873,1.8A.873.873,0,0,1,0,.912.906.906,0,0,1,.264.268.9.9,0,0,1,.9,0H.908C.935,0,.963,0,.99,0a.867.867,0,0,1,.867.857A.906.906,0,0,1,.95,1.8H.873ZM.908.134C.4.134.365.666.365.829c0,.556.2.838.585.838.365,0,.543-.247.543-.756C1.492.535,1.287.134.908.134Z" transform="translate(13.929 13.328)"/><path class="c" d="M1.953.1V0H1.313V.1h.062c.069,0,.2,0,.2.22V1.21L.5.007H0V.1H.041A.2.2,0,0,1,.248.309V1.341c0,.193-.048.3-.206.3H0V1.76H.646V1.671H.6c-.186,0-.213-.062-.22-.275V.385L1.609,1.76h.11a1.375,1.375,0,0,1,0-.241V.385c0-.282.1-.3.206-.3h.048Z" transform="translate(15.854 13.366)"/><path class="c" d="M.557,1.809H0V1.684a.212.212,0,0,0,.2-.151L.592.413A2.362,2.362,0,0,0,.687.1,1.118,1.118,0,0,0,.908,0V.062l.447,1.279c.024.079.054.162.089.248a.145.145,0,0,0,.145.136.144.144,0,0,0,.041-.006v.088h-.7V1.719H.963c.063,0,.137-.016.137-.062a.84.84,0,0,0-.048-.172L.963,1.21H.515L.44,1.458a.837.837,0,0,0-.055.186.065.065,0,0,0,.056.066.45.45,0,0,0,.117.01v.089ZM.667.358l-.22.653H.873Z" transform="translate(17.875 13.318)"/><path class="c" d="M1.286,1.286h0a.529.529,0,0,1-.076.172.351.351,0,0,1-.227.124H.667a.121.121,0,0,1-.138-.131V.22C.529.1.591.1.681.1H.756V0H0V.1H.041C.131.1.213.1.213.227V1.478c0,.144-.083.151-.172.151H0V1.76H1.286a2.214,2.214,0,0,1,.089-.413H1.286Z" transform="translate(19.614 13.366)"/><path class="c" d="M.255.509A.254.254,0,0,1,.248,0H.263A.244.244,0,0,1,.434.07.247.247,0,0,1,.509.255.255.255,0,0,1,.257.509ZM.248.028A.207.207,0,1,0,.454.234.206.206,0,0,0,.248.028Z" transform="translate(20.653 13.311)"/><path class="c" d="M.213.261H.165C.147.261.132.238.111.2S.086.166.069.144V.227H0V0H.131C.187,0,.22.026.22.069A.076.076,0,0,1,.158.144V.2L.212.26Z" transform="translate(20.79 13.428)"/><g transform="translate(5.1)"><path class="b" d="M6.423,8.657a4.5,4.5,0,0,0,4.524-4.29A4.421,4.421,0,0,0,6.423,0H4.36A4.263,4.263,0,0,0,0,4.367,4.338,4.338,0,0,0,4.36,8.657Z" transform="translate(0 0)"/><path class="a" d="M3.96,7.92A3.96,3.96,0,1,1,7.92,3.96,3.965,3.965,0,0,1,3.96,7.92Zm.893-6.3V6.3a2.509,2.509,0,0,0,0-4.689Zm-1.794,0a2.513,2.513,0,0,0,0,4.689Z" transform="translate(0.441 0.359)"/><path class="b" d="M6.423,8.657a4.5,4.5,0,0,0,4.524-4.29A4.421,4.421,0,0,0,6.423,0H4.36A4.263,4.263,0,0,0,0,4.367,4.338,4.338,0,0,0,4.36,8.657Z" transform="translate(0 0)"/><path class="a" d="M3.96,7.92A3.96,3.96,0,1,1,7.92,3.96,3.965,3.965,0,0,1,3.96,7.92Zm.893-6.3V6.3a2.509,2.509,0,0,0,0-4.689Zm-1.794,0a2.513,2.513,0,0,0,0,4.689Z" transform="translate(0.441 0.359)"/></g></g></g></svg>