<svg xmlns="http://www.w3.org/2000/svg" width="33" height="22" viewBox="0 0 33 22"><defs><style>.a{fill:#212b36;}.b{opacity:0;}.c{fill:#fff;}.d{fill:#f26122;}.e{fill:#ea1d25;}.f{fill:#f69e1e;}</style></defs><g transform="translate(0 -0.001)"><rect class="a" width="33" height="22" rx="4" transform="translate(0 0.001)"/><g transform="translate(3.197 2.2)"><g class="b"><rect class="c" width="26.614" height="17.6"/></g><rect class="d" width="7.02" height="11.468" transform="translate(9.797 3.066)"/><path class="e" d="M9.054,7.295A7.274,7.274,0,0,1,11.8,1.561a7.295,7.295,0,1,0,0,11.468A7.274,7.274,0,0,1,9.054,7.295Z" transform="translate(1.5 1.506)"/><path class="f" d="M.344.283H.3V0H.364L.454.2.536,0H.605V.281H.557V.069L.481.254H.426L.344.069V.282Zm-.207,0H.1V.048H0V0H.241V.048h-.1V.281Z" transform="translate(24.262 13.035)"/><path class="f" d="M11.8,7.29A7.295,7.295,0,0,1,0,13.024,7.3,7.3,0,0,0,1.224,2.787,7.15,7.15,0,0,0,0,1.556,7.295,7.295,0,0,1,11.8,7.29Z" transform="translate(13.303 1.51)"/></g></g></svg>