<svg xmlns="http://www.w3.org/2000/svg" width="32" height="22" viewBox="0 0 32 22"><defs><style>.a{fill:#2a2a6c;}.b{fill:#fff;}</style></defs><g transform="translate(-0.383 0.412)"><rect class="a" width="32" height="22" rx="4" transform="translate(0.383 -0.412)"/><path class="b" d="M11.478,6.423a4.808,4.808,0,0,1-1.757-.331l.29-1.349a3.386,3.386,0,0,0,1.6.405h.043c.48-.007.965-.2.965-.614.007-.264-.22-.475-.837-.776s-1.41-.793-1.41-1.693C10.376.849,11.486,0,13.074,0a4.327,4.327,0,0,1,1.511.277L14.3,1.626a3.044,3.044,0,0,0-1.3-.292c-.1,0-.2,0-.3.015-.466.062-.675.306-.675.52,0,.261.334.436.757.658.671.352,1.507.789,1.5,1.818l.034-.054c-.007,1.3-1.111,2.132-2.813,2.132Zm4.47-.054h-1.7L16.671.587a.733.733,0,0,1,.675-.459h1.349L20,6.368h-1.5l-.2-.931H16.279l-.33.931Zm1.606-4.554L16.7,4.155h1.342ZM8.568,6.349H6.948L8.3.108H9.917L8.568,6.348ZM5.026,6.328H3.265L1.977,1.342A.678.678,0,0,0,1.592.8,6.69,6.69,0,0,0,0,.27L.041.087H2.786a.754.754,0,0,1,.749.634L4.21,4.331,5.89.087H7.644L5.026,6.328Z" transform="translate(6.18 7.576)"/></g></svg>